<svg width="1080" height="1080" viewBox="0 0 1080 1080" fill="none" xmlns="http://www.w3.org/2000/svg">
<g clip-path="url(#clip0_2_38)">
<path fill-rule="evenodd" clip-rule="evenodd" d="M-2 244.657L670.551 229L583.419 290.265L115.764 303.198L-2 244.657ZM147.758 626.54L700.502 246.018L767.893 272.676L189.282 677.594L147.758 626.54ZM262.8 376.035L145.035 317.494L193.026 421.644L68.7948 494.481L119.168 609.522L316.577 478.143L262.8 376.035ZM837.327 634.028L778.104 640.154L586.822 661.257L204.258 703.461L379.883 582.974L790.357 540.089L837.327 634.028ZM637.195 792.635L1079.66 851.177L809.417 284.138L718.201 350.168L928.543 760.642L772.659 730.69L637.195 792.635Z" fill="white"/>
</g>
<defs>
<clipPath id="clip0_2_38">
<rect width="1080" height="1080" fill="white"/>
</clipPath>
</defs>
</svg>
