<svg width="2768" height="1080" viewBox="0 0 2768 1080" fill="none" xmlns="http://www.w3.org/2000/svg">
<path fill-rule="evenodd" clip-rule="evenodd" d="M143 326.677L637 315.177L573 360.177L229.5 369.677L143 326.677ZM239.5 606.5L650 318L732.5 345.5L281.5 659L239.5 606.5ZM337.5 423.177L251 380.177L286.25 456.677L195 510.177L232 594.677L377 498.177L337.5 423.177ZM759.5 612.677L716 617.177L575.5 632.677L294.5 663.677L423.5 575.177L725 543.677L759.5 612.677ZM612.5 729.177L937.5 772.177L739 355.677L672 404.177L826.5 705.677L712 683.677L612.5 729.177Z" fill="url(#paint0_linear_2_44)"/>
<path d="M1088 760V314.2H1204.4V487.6H1250.6L1322 314.2H1445.6L1343 538.6L1451 760H1327.4L1250.6 592H1204.4V760H1088ZM1662.13 760V633.4L1533.13 314.2H1653.73L1722.73 514.6L1791.73 314.2H1907.53L1778.53 633.4V760H1662.13ZM2015.4 760V314.2H2205.6C2225.2 314.2 2243.2 316.6 2259.6 321.4C2276 326.2 2290.2 334.4 2302.2 346C2314.2 357.2 2323.4 372.4 2329.8 391.6C2336.6 410.8 2340 435 2340 464.2C2340 482.6 2338.4 498.6 2335.2 512.2C2332 525.8 2327.6 537.4 2322 547C2316.8 556.2 2310.4 564 2302.8 570.4C2295.6 576.8 2287.8 582.4 2279.4 587.2L2356.8 760H2238.6L2176.2 606.4C2172.6 606.4 2168.8 606.4 2164.8 606.4C2161.2 606.4 2157.6 606.4 2154 606.4C2150.4 606.4 2146.6 606.4 2142.6 606.4C2139 606.4 2135.4 606.4 2131.8 606.4V760H2015.4ZM2131.8 514H2184.6C2191 514 2196.6 513.2 2201.4 511.6C2206.2 509.6 2210.2 506.6 2213.4 502.6C2217 498.6 2219.6 493.6 2221.2 487.6C2222.8 481.2 2223.6 473.6 2223.6 464.8C2223.6 456 2222.8 448.6 2221.2 442.6C2219.6 436.6 2217 432 2213.4 428.8C2210.2 425.2 2206.2 422.6 2201.4 421C2196.6 419.4 2191 418.6 2184.6 418.6H2131.8V514ZM2471.19 760V314.2H2587.59V760H2471.19Z" fill="url(#paint1_linear_2_44)"/>
<defs>
<linearGradient id="paint0_linear_2_44" x1="1177" y1="772" x2="506" y2="273" gradientUnits="userSpaceOnUse">
<stop/>
<stop offset="1" stop-color="#960099"/>
</linearGradient>
<linearGradient id="paint1_linear_2_44" x1="465" y1="-186.5" x2="2621" y2="824.5" gradientUnits="userSpaceOnUse">
<stop/>
<stop offset="1" stop-color="#960099"/>
</linearGradient>
</defs>
</svg>
