<svg width="2768" height="1080" viewBox="0 0 2768 1080" fill="none" xmlns="http://www.w3.org/2000/svg">
<path d="M172.448 603.471L168.433 606.235L171.509 610.017L202.009 647.517L204.65 650.764L208.08 648.364L633.08 350.945L639.932 346.15L632.155 343.073L582.655 323.493L580.424 322.61L578.448 323.971L172.448 603.471Z" fill="white" stroke="white" stroke-width="9"/>
<path d="M65 326.677L559 315.177L495 360.177L151.5 369.677L65 326.677Z" fill="white"/>
<path d="M173 380.177L259.5 423.177L299 498.177L154 594.677L117 510.177L208.25 456.677L173 380.177Z" fill="white"/>
<path d="M681.5 612.677L638 617.177L497.5 632.677L216.5 663.677L345.5 575.177L647 543.677L681.5 612.677Z" fill="white"/>
<path d="M859.5 772.177L534.5 729.177L634 683.677L748.5 705.677L594 404.177L661 355.677L859.5 772.177Z" fill="white"/>
<path d="M1175 760V314.2H1291.4V487.6H1337.6L1409 314.2H1532.6L1430 538.6L1538 760H1414.4L1337.6 592H1291.4V760H1175ZM1749.13 760V633.4L1620.13 314.2H1740.73L1809.73 514.6L1878.73 314.2H1994.53L1865.53 633.4V760H1749.13ZM2102.4 760V314.2H2292.6C2312.2 314.2 2330.2 316.6 2346.6 321.4C2363 326.2 2377.2 334.4 2389.2 346C2401.2 357.2 2410.4 372.4 2416.8 391.6C2423.6 410.8 2427 435 2427 464.2C2427 482.6 2425.4 498.6 2422.2 512.2C2419 525.8 2414.6 537.4 2409 547C2403.8 556.2 2397.4 564 2389.8 570.4C2382.6 576.8 2374.8 582.4 2366.4 587.2L2443.8 760H2325.6L2263.2 606.4C2259.6 606.4 2255.8 606.4 2251.8 606.4C2248.2 606.4 2244.6 606.4 2241 606.4C2237.4 606.4 2233.6 606.4 2229.6 606.4C2226 606.4 2222.4 606.4 2218.8 606.4V760H2102.4ZM2218.8 514H2271.6C2278 514 2283.6 513.2 2288.4 511.6C2293.2 509.6 2297.2 506.6 2300.4 502.6C2304 498.6 2306.6 493.6 2308.2 487.6C2309.8 481.2 2310.6 473.6 2310.6 464.8C2310.6 456 2309.8 448.6 2308.2 442.6C2306.6 436.6 2304 432 2300.4 428.8C2297.2 425.2 2293.2 422.6 2288.4 421C2283.6 419.4 2278 418.6 2271.6 418.6H2218.8V514ZM2558.19 760V314.2H2674.59V760H2558.19Z" fill="white"/>
</svg>
